# xmcd
#
# Track frame offsets:
#  150
#  13845
#  28131
#  41097
#  54148
#  66189
#  80603
#  96830
#  108899
#  123446
#  135286
#  146357
#
# Disc length: 2131 seconds
#
# Revision: 0
# Processed by: cddbd v1.5.2PL0 Copyright (c) Steve Scherf et al.
# Submitted via: AltoMP3_Maker 3.0
#
DISCID=9a08510c
DTITLE=Hot Club of Cowtown - Midnight on the Trail
DYEAR=1900
DGENRE=
TTITLE0=Take Me Back to Tulsa
TTITLE1=Call of the Canyon
TTITLE2=I've Got the Wonder Where She's Gone and When She's Comin' Back Again Blues
TTITLE3=Next to the Soil
TTITLE4=I'm an Old Cowhand
TTITLE5=Cotton Eyed Joe
TTITLE6=Oh, Mona
TTITLE7=An Old Watermill by a Waterfall
TTITLE8=Right or Wrong
TTITLE9=There's an Empty Cot in the Bunkhouse Tonight
TTITLE10=Blue Bonnt Land
TTITLE11=Silver on the Sage
EXTD=
EXTT0=
EXTT1=
EXTT2=
EXTT3=
EXTT4=
EXTT5=
EXTT6=
EXTT7=
EXTT8=
EXTT9=
EXTT10=
EXTT11=
PLAYORDER=
